<svg width="24" height="24" xmlns="http://www.w3.org/2000/svg" fill-rule="evenodd" clip-rule="evenodd"><path d="M0 6h11l1-3h7v1h-5l-3 10h-9l-2-8zm3.995 2h-.995l1.036 4h1.057l-1.098-4zm4.186 0h-.995l1.036 4h1.057l-1.098-4zm-2.093 0h-.995l1.036 4h1.057l-1.098-4zm.483-6.791c.198-.135.443-.209.692-.209.372 0 .754.167 1 .553.851 1.337 2.207 3.447 2.207 3.447h-9.47s3.706-2.524 5.571-3.791zm4.429 17.791v.026c-.014 2.196-1.801 3.974-4 3.974-2.208 0-4-1.792-4-4 0-.729.195-1.411.536-2h-1.536v-2h9.92l3.08-10h4.279c.431 0 .813.275.949.684l1.772 5.316 1.337.668c.406.204.663.619.663 1.073v4.259c0 .553-.447 1-1 1h-1.126c.082.319.126.655.126 1 0 2.208-1.792 4-4 4s-4-1.792-4-4h-3zm-4-1.5c.828 0 1.5.672 1.5 1.5s-.672 1.5-1.5 1.5-1.5-.672-1.5-1.5.672-1.5 1.5-1.5zm11 0c.828 0 1.5.672 1.5 1.5s-.672 1.5-1.5 1.5-1.5-.672-1.5-1.5.672-1.5 1.5-1.5zm.99-10.5h-2.99v3h3.889l-.899-3z"/></svg>